<svg width="220" height="52" viewBox="0 0 220 52" fill="none" xmlns="http://www.w3.org/2000/svg">
<g id="G-logo-3">
<g id="gv-blk">
<path fill-rule="evenodd" clip-rule="evenodd" d="M5.97484 14.0859C3.11629 17.8711 1.26526 22.1702 0.421754 26.9834C0.140585 28.6657 0 30.3013 0 31.8901C0 35.8621 0.866938 39.3669 2.60081 42.4043C4.38155 45.3951 6.84178 47.7316 9.9815 49.4139C13.1681 51.0961 16.8467 51.9373 21.0174 51.9373C25.2349 51.9373 29.1947 51.0728 32.8968 49.3438C36.4048 47.6611 39.4499 45.475 42.0322 42.7853C42.2377 43.6134 42.5256 44.3908 42.896 45.1174C43.7279 46.7172 44.8958 47.965 46.3996 48.8609C47.9035 49.7248 49.6313 50.1568 51.583 50.1568C53.5668 50.1568 55.3906 49.7568 57.0544 48.9569C58.7502 48.125 60.126 47.0851 61.1819 45.8373L60.462 49.7248H67.2292L71.1888 27.3413L75.4715 49.7248H83.7266L97.3206 24.8697L92.9239 49.7248H99.6911L102.187 35.5185C102.731 33.4387 103.595 31.9669 104.779 31.103C105.994 30.2391 107.594 29.8071 109.578 29.8071H111.354L112.602 22.7519C110.81 22.7519 109.146 23.1999 107.61 24.0958C106.074 24.9917 104.731 26.2395 103.579 27.8394L104.395 23.1359H91.0217L80.7029 43.5335L77.5833 23.1359H65.1655L64.4935 26.9275C63.8536 25.7116 62.8457 24.7037 61.4699 23.9038C60.126 23.1039 58.4622 22.704 56.4785 22.704C54.2067 22.704 52.047 23.2639 49.9992 24.3838C49.9609 24.4047 49.9226 24.4259 49.8845 24.4472L49.9075 24.3198H23.337L22.0718 31.7499H38.9419C37.5829 35.3014 35.4976 38.0818 32.6859 40.0912C29.9211 42.1006 26.6876 43.1053 22.9856 43.1053C19.0023 43.1053 15.8626 42.0305 13.5664 39.8809C11.3171 37.6846 10.1924 34.6705 10.1924 30.8387C10.1924 29.39 10.3095 28.1049 10.5438 26.9834C11.1062 23.8058 12.2309 21.002 13.9179 18.572C15.6049 16.142 17.6902 14.2728 20.1739 12.9644C22.6575 11.656 25.3521 11.0017 28.2575 11.0017C30.8817 11.0017 33.0842 11.5391 34.865 12.6139C36.6457 13.6887 37.911 15.2542 38.6608 17.3103H49.9778C49.228 12.4504 47.049 8.6886 43.4406 6.02499C39.8792 3.31464 35.3336 1.95947 29.8039 1.95947C25.1178 1.95947 20.6894 3.03426 16.5187 5.18385C12.348 7.2867 8.8334 10.2541 5.97484 14.0859ZM62.8137 36.4304C62.9417 35.5985 63.0057 34.9905 63.0057 34.6066C63.0057 32.7188 62.4458 31.247 61.3259 30.1911C60.238 29.1352 58.8622 28.6073 57.1984 28.6073C55.9505 28.6073 54.7347 28.9112 53.5508 29.5192C52.3989 30.1271 51.3911 31.023 50.5272 32.2069C49.6633 33.3587 49.0873 34.7346 48.7994 36.3344C48.7034 36.9423 48.6554 37.5182 48.6554 38.0622C48.6554 39.982 49.1993 41.5018 50.2872 42.6217C51.3751 43.7095 52.7509 44.2535 54.4147 44.2535C55.6626 44.2535 56.8784 43.9495 58.0623 43.3416C59.2461 42.7016 60.254 41.7898 61.0859 40.6059C61.9498 39.422 62.5258 38.0302 62.8137 36.4304Z" fill="black" style="fill:black;fill:black;fill-opacity:1;"/>
<path d="M181.5 22.7519C184.124 22.7519 186.204 23.5039 187.74 25.0077C189.307 26.5115 190.091 28.6233 190.091 31.343C190.091 32.3668 190.011 33.2947 189.851 34.1266L187.068 49.7248H180.396L182.988 35.0385C183.084 34.4626 183.132 33.9027 183.132 33.3587C183.132 31.7589 182.7 30.543 181.836 29.7111C181.004 28.8792 179.804 28.4633 178.237 28.4633C176.445 28.4633 174.925 29.0072 173.677 30.0951C172.429 31.151 171.597 32.6708 171.181 34.6546L168.494 49.7248H161.727L168.014 14.2089H174.781L172.621 26.3995C173.709 25.2797 175.021 24.3998 176.557 23.7598C178.125 23.0879 179.772 22.7519 181.5 22.7519Z" fill="black" style="fill:black;fill:black;fill-opacity:1;"/>
<path fill-rule="evenodd" clip-rule="evenodd" d="M120.871 50.1568C118.599 50.1568 116.583 49.6928 114.824 48.7649C113.096 47.8371 111.752 46.5252 110.792 44.8294C109.832 43.1336 109.352 41.1818 109.352 38.9741C109.352 35.9664 110.056 33.2307 111.464 30.767C112.904 28.2713 114.856 26.3035 117.319 24.8637C119.815 23.4239 122.583 22.704 125.622 22.704C127.894 22.704 129.91 23.1839 131.67 24.1438C133.461 25.0717 134.837 26.3835 135.797 28.0793C136.789 29.7751 137.285 31.7269 137.285 33.9347C137.285 34.1864 137.28 34.4362 137.27 34.6841C137.815 32.651 138.663 30.8334 139.814 29.2312C141.286 27.1514 143.11 25.5516 145.285 24.4318C147.493 23.2799 149.877 22.704 152.437 22.704C155.732 22.704 158.308 23.5199 160.164 25.1517C162.052 26.7835 163.107 29.1032 163.331 32.1109H156.084C155.892 30.959 155.396 30.0631 154.596 29.4232C153.796 28.7513 152.725 28.4153 151.381 28.4153C149.461 28.4153 147.813 29.1192 146.437 30.527C145.093 31.9029 144.198 33.8707 143.75 36.4304C143.59 37.3263 143.51 38.0942 143.51 38.7341C143.51 40.5579 143.958 41.9657 144.854 42.9576C145.749 43.9175 146.997 44.3974 148.597 44.3974C151.285 44.3974 153.269 43.1816 154.548 40.7499H161.796C160.548 43.6295 158.676 45.9173 156.18 47.6131C153.716 49.3089 150.869 50.1568 147.637 50.1568C144.278 50.1568 141.59 49.2129 139.574 47.3251C137.59 45.4053 136.598 42.8136 136.598 39.55C136.598 39.28 136.606 39.0065 136.62 38.7294C136.264 39.9399 135.766 41.0933 135.125 42.1897C133.685 44.6534 131.702 46.6052 129.174 48.045C126.678 49.4529 123.911 50.1568 120.871 50.1568ZM121.783 44.3974C123.383 44.3974 124.838 43.9335 126.15 43.0056C127.462 42.0777 128.486 40.8459 129.222 39.31C129.958 37.7742 130.326 36.1584 130.326 34.4626C130.326 32.5428 129.782 31.071 128.694 30.0471C127.638 28.9912 126.294 28.4633 124.662 28.4633C123.031 28.4633 121.575 28.9272 120.295 29.8551C119.047 30.783 118.071 32.0309 117.367 33.5987C116.663 35.1345 116.311 36.7663 116.311 38.4941C116.311 40.3819 116.807 41.8377 117.799 42.8616C118.823 43.8855 120.151 44.3974 121.783 44.3974Z" fill="black" style="fill:black;fill:black;fill-opacity:1;"/>
<path fill-rule="evenodd" clip-rule="evenodd" d="M214.575 25.5356C212.591 23.6478 209.903 22.704 206.512 22.704C203.888 22.704 201.472 23.2639 199.265 24.3838C197.057 25.5036 195.201 27.1034 193.697 29.1832C192.225 31.263 191.25 33.6787 190.77 36.4304C190.578 37.4862 190.482 38.4941 190.482 39.454C190.482 42.7496 191.506 45.3573 193.553 47.2771C195.601 49.1969 198.321 50.1568 201.712 50.1568C204.848 50.1568 207.648 49.3409 210.111 47.7091C212.607 46.0453 214.447 43.9335 215.631 41.3738H208.384C207.776 42.3337 206.976 43.1176 205.984 43.7255C205.024 44.3015 203.872 44.5894 202.528 44.5894C200.928 44.5894 199.633 44.1255 198.641 43.1976C197.681 42.2377 197.201 40.9258 197.201 39.262C197.201 38.8461 197.217 38.5261 197.249 38.3022H216.687C216.911 37.5982 217.119 36.7663 217.311 35.8064C217.471 35.0065 217.551 34.0946 217.551 33.0708C217.551 29.9031 216.559 27.3914 214.575 25.5356ZM210.735 33.1187C210.735 33.3427 210.703 33.7107 210.639 34.2226H197.969C198.513 32.3668 199.457 30.911 200.8 29.8551C202.144 28.7673 203.664 28.2233 205.36 28.2233C206.96 28.2233 208.256 28.6553 209.247 29.5192C210.239 30.3831 210.735 31.5829 210.735 33.1187Z" fill="black" style="fill:black;fill:black;fill-opacity:1;"/>
</g>
<g id="gv-white">
<path fill-rule="evenodd" clip-rule="evenodd" d="M8.42433 12.1264C5.56578 15.9116 3.71475 20.2108 2.87124 25.0239C2.59007 26.7062 2.44949 28.3418 2.44949 29.9306C2.44949 33.9027 3.31642 37.4074 5.0503 40.4449C6.83104 43.4356 9.29127 45.7721 12.431 47.4544C15.6176 49.1367 19.2962 49.9778 23.4669 49.9778C27.6844 49.9778 31.6442 49.1133 35.3463 47.3843C38.8542 45.7016 41.8994 43.5155 44.4817 40.8258C44.6871 41.6539 44.9751 42.4313 45.3455 43.1579C46.1774 44.7577 47.3453 46.0056 48.8491 46.9015C50.3529 47.7654 52.0807 48.1973 54.0325 48.1973C56.0163 48.1973 57.8401 47.7974 59.5039 46.9974C61.1997 46.1655 62.5755 45.1257 63.6314 43.8778L62.9115 47.7654H69.6787L73.6383 25.3819L77.921 47.7654H86.1761L99.7701 22.9102L95.3734 47.7654H102.141L104.636 33.559C105.18 31.4792 106.044 30.0074 107.228 29.1435C108.444 28.2796 110.044 27.8477 112.027 27.8477H113.803L115.051 20.7925C113.259 20.7925 111.595 21.2404 110.06 22.1363C108.524 23.0322 107.18 24.2801 106.028 25.8799L106.844 21.1764H93.4712L83.1524 41.5741L80.0328 21.1764H67.615L66.943 24.968C66.3031 23.7521 65.2952 22.7442 63.9194 21.9443C62.5755 21.1444 60.9117 20.7445 58.928 20.7445C56.6562 20.7445 54.4965 21.3044 52.4487 22.4243C52.4104 22.4453 52.3721 22.4664 52.334 22.4877L52.357 22.3603H25.7865L24.5213 29.7904H41.3914C40.0324 33.3419 37.9471 36.1223 35.1354 38.1317C32.3706 40.1411 29.1371 41.1458 25.4351 41.1458C21.4518 41.1458 18.3121 40.071 16.0159 37.9214C13.7665 35.7251 12.6419 32.711 12.6419 28.8792C12.6419 27.4305 12.759 26.1455 12.9933 25.0239C13.5557 21.8463 14.6803 19.0425 16.3674 16.6125C18.0544 14.1826 20.1397 12.3134 22.6234 11.0049C25.107 9.69649 27.8016 9.04227 30.707 9.04227C33.3312 9.04227 35.5337 9.57966 37.3145 10.6545C39.0952 11.7292 40.3605 13.2947 41.1102 15.3508H52.4273C51.6775 10.4909 49.4985 6.72913 45.8901 4.06551C42.3286 1.35517 37.7831 0 32.2534 0C27.5673 0 23.1388 1.07479 18.9682 3.22437C14.7975 5.32722 11.2829 8.29458 8.42433 12.1264ZM65.2632 34.4709C65.3912 33.639 65.4552 33.0311 65.4552 32.6471C65.4552 30.7593 64.8953 29.2875 63.7754 28.2316C62.6875 27.1757 61.3117 26.6478 59.6479 26.6478C58.4 26.6478 57.1842 26.9518 56.0003 27.5597C54.8484 28.1676 53.8405 29.0635 52.9766 30.2474C52.1127 31.3992 51.5368 32.7751 51.2488 34.3749C51.1529 34.9828 51.1049 35.5588 51.1049 36.1027C51.1049 38.0225 51.6488 39.5423 52.7367 40.6622C53.8245 41.7501 55.2004 42.294 56.8642 42.294C58.112 42.294 59.3279 41.99 60.5118 41.3821C61.6956 40.7422 62.7035 39.8303 63.5354 38.6464C64.3993 37.4625 64.9753 36.0707 65.2632 34.4709Z" fill="white" style="fill:white;fill:white;fill-opacity:1;"/>
<path d="M183.95 20.7925C186.573 20.7925 188.653 21.5444 190.189 23.0482C191.757 24.552 192.541 26.6638 192.541 29.3835C192.541 30.4074 192.461 31.3353 192.301 32.1672L189.517 47.7654H182.846L185.438 33.0791C185.534 32.5031 185.582 31.9432 185.582 31.3992C185.582 29.7994 185.15 28.5836 184.286 27.7517C183.454 26.9198 182.254 26.5038 180.686 26.5038C178.894 26.5038 177.375 27.0478 176.127 28.1356C174.879 29.1915 174.047 30.7113 173.631 32.6951L170.943 47.7654H164.176L170.463 12.2495H177.231L175.071 24.4401C176.159 23.3202 177.47 22.4403 179.006 21.8004C180.574 21.1284 182.222 20.7925 183.95 20.7925Z" fill="white" style="fill:white;fill:white;fill-opacity:1;"/>
<path fill-rule="evenodd" clip-rule="evenodd" d="M123.32 48.1973C121.049 48.1973 119.033 47.7334 117.273 46.8055C115.545 45.8776 114.201 44.5657 113.242 42.8699C112.282 41.1741 111.802 39.2223 111.802 37.0146C111.802 34.007 112.506 31.2713 113.913 28.8075C115.353 26.3118 117.305 24.3441 119.769 22.9042C122.265 21.4644 125.032 20.7445 128.072 20.7445C130.344 20.7445 132.359 21.2244 134.119 22.1843C135.911 23.1122 137.287 24.4241 138.247 26.1199C139.239 27.8157 139.734 29.7674 139.734 31.9752C139.734 32.227 139.73 32.4768 139.72 32.7246C140.264 30.6915 141.112 28.8739 142.264 27.2717C143.735 25.192 145.559 23.5921 147.735 22.4723C149.943 21.3204 152.326 20.7445 154.886 20.7445C158.182 20.7445 160.757 21.5604 162.613 23.1922C164.501 24.824 165.557 27.1437 165.781 30.1514H158.534C158.342 28.9995 157.846 28.1036 157.046 27.4637C156.246 26.7918 155.174 26.4558 153.83 26.4558C151.91 26.4558 150.263 27.1597 148.887 28.5676C147.543 29.9434 146.647 31.9112 146.199 34.4709C146.039 35.3668 145.959 36.1347 145.959 36.7746C145.959 38.5984 146.407 40.0063 147.303 40.9981C148.199 41.958 149.447 42.438 151.047 42.438C153.734 42.438 155.718 41.2221 156.998 38.7904H164.245C162.997 41.6701 161.125 43.9578 158.63 45.6536C156.166 47.3494 153.318 48.1973 150.087 48.1973C146.727 48.1973 144.039 47.2534 142.024 45.3656C140.04 43.4459 139.048 40.8542 139.048 37.5905C139.048 37.3206 139.055 37.047 139.069 36.77C138.714 37.9804 138.215 39.1338 137.575 40.2302C136.135 42.6939 134.151 44.6457 131.623 46.0856C129.128 47.4934 126.36 48.1973 123.32 48.1973ZM124.232 42.438C125.832 42.438 127.288 41.974 128.6 41.0461C129.912 40.1182 130.936 38.8864 131.671 37.3506C132.407 35.8147 132.775 34.1989 132.775 32.5031C132.775 30.5833 132.231 29.1115 131.143 28.0876C130.088 27.0318 128.744 26.5038 127.112 26.5038C125.48 26.5038 124.024 26.9678 122.744 27.8957C121.497 28.8235 120.521 30.0714 119.817 31.6392C119.113 33.175 118.761 34.8069 118.761 36.5347C118.761 38.4224 119.257 39.8783 120.249 40.9022C121.273 41.926 122.6 42.438 124.232 42.438Z" fill="white" style="fill:white;fill:white;fill-opacity:1;"/>
<path fill-rule="evenodd" clip-rule="evenodd" d="M217.024 23.5762C215.041 21.6884 212.353 20.7445 208.961 20.7445C206.338 20.7445 203.922 21.3044 201.714 22.4243C199.506 23.5442 197.651 25.144 196.147 27.2237C194.675 29.3035 193.699 31.7192 193.219 34.4709C193.027 35.5268 192.931 36.5347 192.931 37.4945C192.931 40.7902 193.955 43.3979 196.003 45.3176C198.051 47.2374 200.77 48.1973 204.162 48.1973C207.297 48.1973 210.097 47.3814 212.561 45.7496C215.057 44.0858 216.896 41.974 218.08 39.4143H210.833C210.225 40.3742 209.425 41.1581 208.433 41.7661C207.473 42.342 206.322 42.6299 204.978 42.6299C203.378 42.6299 202.082 42.166 201.09 41.2381C200.13 40.2782 199.65 38.9664 199.65 37.3026C199.65 36.8866 199.666 36.5667 199.698 36.3427H219.136C219.36 35.6388 219.568 34.8069 219.76 33.847C219.92 33.0471 220 32.1352 220 31.1113C220 27.9436 219.008 25.4319 217.024 23.5762ZM213.185 31.1593C213.185 31.3832 213.153 31.7512 213.089 32.2631H200.418C200.962 30.4074 201.906 28.9515 203.25 27.8957C204.594 26.8078 206.114 26.2638 207.809 26.2638C209.409 26.2638 210.705 26.6958 211.697 27.5597C212.689 28.4236 213.185 29.6235 213.185 31.1593Z" fill="white" style="fill:white;fill:white;fill-opacity:1;"/>
</g>
<g id="thai">
<path d="M67.3519 8.7705L67.1224 10.0909H64.9995L63.8061 17.1492H62.1881L63.3815 10.0909H61.2471L61.4766 8.7705H67.3519Z" fill="white" style="fill:white;fill:white;fill-opacity:1;"/>
<path d="M79.6436 8.7705L78.2322 17.1492H76.6142L77.2223 13.56H73.8027L73.1945 17.1492H71.5765L72.9995 8.7705H74.606L74.0208 12.2396H77.4519L78.0371 8.7705H79.6436Z" fill="white" style="fill:white;fill:white;fill-opacity:1;"/>
<path d="M89.4641 15.5527H86.2625L85.4707 17.1492H83.7839L88.0871 8.75849H89.9575L91.4149 17.1492H89.7166L89.4641 15.5527ZM89.2575 14.2443L88.6838 10.6911L86.9166 14.2443H89.2575Z" fill="white" style="fill:white;fill:white;fill-opacity:1;"/>
<path d="M99.9963 8.7705L98.5848 17.1492H96.9668L98.3898 8.7705H99.9963ZM98.275 7.96624C98.0838 7.96624 97.9269 7.90622 97.8045 7.78618C97.6821 7.65814 97.6209 7.50209 97.6209 7.31803C97.6209 7.06194 97.7127 6.84187 97.8963 6.65781C98.0799 6.46575 98.2941 6.36972 98.5389 6.36972C98.7302 6.36972 98.8832 6.43374 98.998 6.56178C99.1127 6.68182 99.1701 6.83787 99.1701 7.02993C99.1701 7.28602 99.0783 7.50609 98.8947 7.69015C98.7187 7.87421 98.5122 7.96624 98.275 7.96624ZM100.398 7.96624C100.207 7.96624 100.05 7.90622 99.9275 7.78618C99.805 7.65814 99.7438 7.50209 99.7438 7.31803C99.7438 7.06194 99.8356 6.84187 100.019 6.65781C100.203 6.46575 100.417 6.36972 100.662 6.36972C100.853 6.36972 101.006 6.43374 101.121 6.56178C101.236 6.68182 101.293 6.83787 101.293 7.02993C101.293 7.28602 101.201 7.50609 101.018 7.69015C100.842 7.87421 100.635 7.96624 100.398 7.96624Z" fill="white" style="fill:white;fill:white;fill-opacity:1;"/>
<path d="M106.472 15.8648H109.111L108.893 17.1492H104.636L106.059 8.7705H107.665L106.472 15.8648Z" fill="white" style="fill:white;fill:white;fill-opacity:1;"/>
<path d="M119.565 15.5527H116.363L115.572 17.1492H113.885L118.188 8.75849H120.059L121.516 17.1492H119.818L119.565 15.5527ZM119.359 14.2443L118.785 10.6911L117.018 14.2443H119.359Z" fill="white" style="fill:white;fill:white;fill-opacity:1;"/>
<path d="M133.93 17.1492H132.312L129.661 11.3993L128.686 17.1492H127.068L128.491 8.75849H130.097L132.76 14.5204L133.735 8.75849H135.341L133.93 17.1492Z" fill="white" style="fill:white;fill:white;fill-opacity:1;"/>
<path d="M144.204 8.7705C144.946 8.7705 145.585 8.90654 146.121 9.17863C146.664 9.44271 147.077 9.82284 147.36 10.319C147.651 10.8152 147.796 11.4033 147.796 12.0836C147.796 12.3877 147.769 12.6838 147.716 12.9719C147.578 13.8121 147.28 14.5484 146.821 15.1806C146.369 15.8048 145.796 16.2889 145.099 16.633C144.403 16.9771 143.631 17.1492 142.781 17.1492H139.981L141.404 8.7705H144.204ZM142.965 15.7808C143.807 15.7808 144.495 15.5327 145.031 15.0365C145.574 14.5404 145.922 13.8521 146.075 12.9719C146.113 12.7078 146.132 12.4797 146.132 12.2876C146.132 11.6154 145.941 11.0952 145.558 10.7271C145.184 10.359 144.633 10.175 143.906 10.175H142.781L141.84 15.7808H142.965Z" fill="white" style="fill:white;fill:white;fill-opacity:1;"/>
<path d="M155.494 10.0789L155.126 12.2516H157.823L157.605 13.548H154.908L154.53 15.8168H157.571L157.341 17.1492H152.682L154.105 8.75849H158.753L158.535 10.0789H155.494Z" fill="white" style="fill:white;fill:white;fill-opacity:1;"/>
</g>
</g>
</svg>
